<svg xmlns="http://www.w3.org/2000/svg" viewBox="0 0 200 200" width="100%" height="100%">
    <defs>
      <linearGradient id="grad-catbg-3_bengal" x1="0%" y1="0%" x2="100%" y2="100%">
        <stop offset="0%" stop-color="#1e293b"/>
        <stop offset="100%" stop-color="#0b1322"/>
      </linearGradient>
      <filter id="glow-cat-3_bengal" x="-20%" y="-20%" width="140%" height="140%">
        <feDropShadow dx="0" dy="6" stdDeviation="5" flood-color="rgba(0,0,0,0.4)"/>
      </filter>
    </defs>
    <rect width="200" height="200" rx="20" fill="url(#grad-catbg-3_bengal)"/>

    <g filter="url(#glow-cat-3_bengal)">
      <!-- Tail -->
      <polygon points="140,160 168,145 180,125 170,118 155,138 135,152" fill="#92400e"/>
      <polygon points="170,118 180,125 182,105 174,102" fill="#d97706"/>

      <!-- Body / Torso Facets -->
      <polygon points="100,105 75,135 100,150" fill="#d97706"/>
      <polygon points="100,105 125,135 100,150" fill="#fbbf24"/>
      <polygon points="75,135 55,160 85,175" fill="#92400e"/>
      <polygon points="75,135 100,150 85,175" fill="#d97706"/>
      <polygon points="125,135 145,160 115,175" fill="#451a03"/>
      <polygon points="125,135 100,150 115,175" fill="#92400e"/>

      <!-- Paws / Legs -->
      <polygon points="85,175 75,182 92,185 96,177" fill="#fbbf24"/>
      <polygon points="115,175 108,177 112,185 125,182" fill="#d97706"/>

      <!-- Head Facets -->
      <!-- Ears -->
      <polygon points="78,55 58,20 92,38" fill="#92400e"/>
      <polygon points="92,38 58,20 102,48" fill="#fbbf24"/>
      <polygon points="82,50 66,31 95,42" fill="#f472b6" opacity="0.7"/>

      <polygon points="122,55 142,20 108,38" fill="#92400e"/>
      <polygon points="108,38 142,20 98,48" fill="#d97706"/>
      <polygon points="118,50 134,31 105,42" fill="#f472b6" opacity="0.7"/>

      <!-- Face -->
      <polygon points="100,45 80,62 100,75" fill="#fbbf24"/>
      <polygon points="100,45 120,62 100,75" fill="#d97706"/>
      <polygon points="80,62 65,78 88,95" fill="#92400e"/>
      <polygon points="80,62 100,75 88,95" fill="#d97706"/>
      <polygon points="120,62 135,78 112,95" fill="#451a03"/>
      <polygon points="120,62 100,75 112,95" fill="#fbbf24"/>
      <polygon points="88,95 100,75 100,105" fill="#d97706"/>
      <polygon points="112,95 100,75 100,105" fill="#92400e"/>

      <!-- Eyes -->
      <polygon points="82,68 88,65 90,72 84,74" fill="#22c55e"/>
      <polygon points="118,68 112,65 110,72 116,74" fill="#22c55e"/>

      <!-- Nose & Mouth -->
      <polygon points="98,82 102,82 100,86" fill="#f43f5e"/>
      <path d="M 96 90 Q 100 93 100 86 Q 100 93 104 90" stroke="#451a03" stroke-width="1.5" fill="none" stroke-linecap="round"/>
    </g>
  </svg>